<svg xmlns="http://www.w3.org/2000/svg" width="256" height="256" viewBox="0 0 100 100"><rect width="100" height="100" rx="20" fill="#36c6f7"></rect><path fill="#2a2939" d="M72.77 42.89L72.77 42.89Q72.77 38.48 70.25 36.41Q67.73 34.34 63.50 34.34L63.50 34.34Q57.65 34.34 53.06 38.48L53.06 38.48Q53.60 40.28 53.60 42.35L53.60 42.35L53.60 70.97Q53.15 71.15 52.20 71.37Q51.26 71.60 50.27 71.60L50.27 71.60Q46.40 71.60 46.40 68.36L46.40 68.36L46.40 42.89Q46.40 38.48 43.88 36.41Q41.36 34.34 37.04 34.34L37.04 34.34Q34.16 34.34 31.59 35.24Q29.03 36.14 27.23 37.31L27.23 37.31L27.23 70.97Q26.78 71.15 25.88 71.37Q24.98 71.60 23.90 71.60L23.90 71.60Q20.03 71.60 20.03 68.36L20.03 68.36L20.03 37.67Q20.03 35.87 20.80 34.65Q21.56 33.44 23.45 32.18L23.45 32.18Q25.88 30.65 29.62 29.52Q33.35 28.40 37.13 28.40L37.13 28.40Q41.54 28.40 44.96 29.70Q48.38 31.01 50.18 33.26L50.18 33.26Q52.52 31.19 56.03 29.79Q59.54 28.40 64.04 28.40L64.04 28.40Q71.33 28.40 75.65 31.86Q79.97 35.33 79.97 42.53L79.97 42.53L79.97 70.97Q79.52 71.15 78.58 71.37Q77.63 71.60 76.64 71.60L76.64 71.60Q72.77 71.60 72.77 68.36L72.77 68.36L72.77 42.89Z"></path></svg>